  0
SECTION
  2
BLOCKS
  0
ENDSEC
  0
SECTION
  2
ENTITIES
  0
LINE
  8
0
 10
-155.500000
 11
-155.445000
 20
45.700000
 21
46.745000
  0
LINE
  8
0
 10
-155.445000
 11
-155.281000
 20
46.745000
 21
47.779000
  0
LINE
  8
0
 10
-155.281000
 11
-155.011000
 20
47.779000
 21
48.790000
  0
LINE
  8
0
 10
-155.011000
 11
-154.635000
 20
48.790000
 21
49.767000
  0
LINE
  8
0
 10
-154.635000
 11
-154.160000
 20
49.767000
 21
50.700000
  0
LINE
  8
0
 10
-154.160000
 11
-153.590000
 20
50.700000
 21
51.578000
  0
LINE
  8
0
 10
-153.590000
 11
-152.931000
 20
51.578000
 21
52.391000
  0
LINE
  8
0
 10
-152.931000
 11
-152.191000
 20
52.391000
 21
53.131000
  0
LINE
  8
0
 10
-152.191000
 11
-151.378000
 20
53.131000
 21
53.790000
  0
LINE
  8
0
 10
-151.378000
 11
-150.500000
 20
53.790000
 21
54.360000
  0
LINE
  8
0
 10
-150.500000
 11
-149.567000
 20
54.360000
 21
54.835000
  0
LINE
  8
0
 10
-149.567000
 11
-148.590000
 20
54.835000
 21
55.211000
  0
LINE
  8
0
 10
-148.590000
 11
-147.579000
 20
55.211000
 21
55.481000
  0
LINE
  8
0
 10
-147.579000
 11
-146.545000
 20
55.481000
 21
55.645000
  0
LINE
  8
0
 10
-146.545000
 11
-145.500000
 20
55.645000
 21
55.700000
  0
LINE
  8
0
 10
-145.500000
 11
-144.455000
 20
55.700000
 21
55.645000
  0
LINE
  8
0
 10
-144.455000
 11
-143.421000
 20
55.645000
 21
55.481000
  0
LINE
  8
0
 10
-143.421000
 11
-142.410000
 20
55.481000
 21
55.211000
  0
LINE
  8
0
 10
-142.410000
 11
-141.433000
 20
55.211000
 21
54.835000
  0
LINE
  8
0
 10
-141.433000
 11
-140.500000
 20
54.835000
 21
54.360000
  0
LINE
  8
0
 10
-140.500000
 11
-139.622000
 20
54.360000
 21
53.790000
  0
LINE
  8
0
 10
-139.622000
 11
-125.884000
 20
53.790000
 21
43.700000
  0
LINE
  8
0
 10
-125.884000
 11
-85.291000
 20
43.700000
 21
43.700000
  0
LINE
  8
0
 10
-85.291000
 11
-85.500000
 20
43.700000
 21
75.000000
  0
LINE
  8
0
 10
-85.500000
 11
-85.464000
 20
75.000000
 21
75.679000
  0
LINE
  8
0
 10
-85.464000
 11
-85.358000
 20
75.679000
 21
76.351000
  0
LINE
  8
0
 10
-85.358000
 11
-85.182000
 20
76.351000
 21
77.009000
  0
LINE
  8
0
 10
-85.182000
 11
-84.938000
 20
77.009000
 21
77.644000
  0
LINE
  8
0
 10
-84.938000
 11
-84.629000
 20
77.644000
 21
78.250000
  0
LINE
  8
0
 10
-84.629000
 11
-84.259000
 20
78.250000
 21
78.821000
  0
LINE
  8
0
 10
-84.259000
 11
-83.830000
 20
78.821000
 21
79.349000
  0
LINE
  8
0
 10
-83.830000
 11
-83.349000
 20
79.349000
 21
79.830000
  0
LINE
  8
0
 10
-83.349000
 11
-82.821000
 20
79.830000
 21
80.259000
  0
LINE
  8
0
 10
-82.821000
 11
-82.250000
 20
80.259000
 21
80.629000
  0
LINE
  8
0
 10
-82.250000
 11
-81.644000
 20
80.629000
 21
80.938000
  0
LINE
  8
0
 10
-81.644000
 11
-81.009000
 20
80.938000
 21
81.182000
  0
LINE
  8
0
 10
-81.009000
 11
-80.351000
 20
81.182000
 21
81.358000
  0
LINE
  8
0
 10
-80.351000
 11
-13.119000
 20
81.358000
 21
94.672000
  0
LINE
  8
0
 10
-13.119000
 11
-11.568000
 20
94.672000
 21
94.918000
  0
LINE
  8
0
 10
-11.568000
 11
-10.000000
 20
94.918000
 21
95.000000
  0
LINE
  8
0
 10
-10.000000
 11
-8.432000
 20
95.000000
 21
94.918000
  0
LINE
  8
0
 10
-8.432000
 11
-6.881000
 20
94.918000
 21
94.672000
  0
LINE
  8
0
 10
-6.881000
 11
-5.365000
 20
94.672000
 21
94.266000
  0
LINE
  8
0
 10
-5.365000
 11
-3.899000
 20
94.266000
 21
93.703000
  0
LINE
  8
0
 10
-3.899000
 11
-2.500000
 20
93.703000
 21
92.990000
  0
LINE
  8
0
 10
-2.500000
 11
-1.183000
 20
92.990000
 21
92.135000
  0
LINE
  8
0
 10
-1.183000
 11
0.037000
 20
92.135000
 21
91.147000
  0
LINE
  8
0
 10
0.037000
 11
1.147000
 20
91.147000
 21
90.037000
  0
LINE
  8
0
 10
1.147000
 11
2.135000
 20
90.037000
 21
88.817000
  0
LINE
  8
0
 10
2.135000
 11
2.990000
 20
88.817000
 21
87.500000
  0
LINE
  8
0
 10
2.990000
 11
3.703000
 20
87.500000
 21
86.101000
  0
LINE
  8
0
 10
3.703000
 11
4.266000
 20
86.101000
 21
84.635000
  0
LINE
  8
0
 10
4.266000
 11
4.672000
 20
84.635000
 21
83.119000
  0
LINE
  8
0
 10
4.672000
 11
4.918000
 20
83.119000
 21
81.568000
  0
LINE
  8
0
 10
4.918000
 11
5.000000
 20
81.568000
 21
80.000000
  0
LINE
  8
0
 10
5.000000
 11
4.918000
 20
80.000000
 21
78.432000
  0
LINE
  8
0
 10
4.918000
 11
0.000000
 20
78.432000
 21
0.000000
  0
LINE
  8
0
 10
0.000000
 11
-150.000000
 20
0.000000
 21
0.000000
  0
LINE
  8
0
 10
-150.000000
 11
-155.445000
 20
0.000000
 21
44.655000
  0
LINE
  8
0
 10
-155.445000
 11
-155.500000
 20
44.655000
 21
45.700000
  0
LINE
  8
0
 10
-147.621000
 11
-147.517000
 20
45.700000
 21
46.355000
  0
LINE
  8
0
 10
-147.517000
 11
-147.216000
 20
46.355000
 21
46.947000
  0
LINE
  8
0
 10
-147.216000
 11
-146.747000
 20
46.947000
 21
47.416000
  0
LINE
  8
0
 10
-146.747000
 11
-146.155000
 20
47.416000
 21
47.717000
  0
LINE
  8
0
 10
-146.155000
 11
-145.500000
 20
47.717000
 21
47.821000
  0
LINE
  8
0
 10
-145.500000
 11
-144.845000
 20
47.821000
 21
47.717000
  0
LINE
  8
0
 10
-144.845000
 11
-144.253000
 20
47.717000
 21
47.416000
  0
LINE
  8
0
 10
-144.253000
 11
-143.784000
 20
47.416000
 21
46.947000
  0
LINE
  8
0
 10
-143.784000
 11
-143.483000
 20
46.947000
 21
46.355000
  0
LINE
  8
0
 10
-143.483000
 11
-143.379000
 20
46.355000
 21
45.700000
  0
LINE
  8
0
 10
-143.379000
 11
-143.483000
 20
45.700000
 21
45.045000
  0
LINE
  8
0
 10
-143.483000
 11
-143.784000
 20
45.045000
 21
44.453000
  0
LINE
  8
0
 10
-143.784000
 11
-144.253000
 20
44.453000
 21
43.984000
  0
LINE
  8
0
 10
-144.253000
 11
-144.845000
 20
43.984000
 21
43.683000
  0
LINE
  8
0
 10
-144.845000
 11
-145.500000
 20
43.683000
 21
43.579000
  0
LINE
  8
0
 10
-145.500000
 11
-146.155000
 20
43.579000
 21
43.683000
  0
LINE
  8
0
 10
-146.155000
 11
-146.747000
 20
43.683000
 21
43.984000
  0
LINE
  8
0
 10
-146.747000
 11
-147.216000
 20
43.984000
 21
44.453000
  0
LINE
  8
0
 10
-147.216000
 11
-147.517000
 20
44.453000
 21
45.045000
  0
LINE
  8
0
 10
-147.517000
 11
-147.621000
 20
45.045000
 21
45.700000
  0
LINE
  8
0
 10
-142.121000
 11
-142.017000
 20
9.525000
 21
10.180000
  0
LINE
  8
0
 10
-142.017000
 11
-141.716000
 20
10.180000
 21
10.772000
  0
LINE
  8
0
 10
-141.716000
 11
-141.247000
 20
10.772000
 21
11.241000
  0
LINE
  8
0
 10
-141.247000
 11
-140.655000
 20
11.241000
 21
11.542000
  0
LINE
  8
0
 10
-140.655000
 11
-140.000000
 20
11.542000
 21
11.646000
  0
LINE
  8
0
 10
-140.000000
 11
-139.345000
 20
11.646000
 21
11.542000
  0
LINE
  8
0
 10
-139.345000
 11
-138.753000
 20
11.542000
 21
11.241000
  0
LINE
  8
0
 10
-138.753000
 11
-138.284000
 20
11.241000
 21
10.772000
  0
LINE
  8
0
 10
-138.284000
 11
-137.983000
 20
10.772000
 21
10.180000
  0
LINE
  8
0
 10
-137.983000
 11
-137.879000
 20
10.180000
 21
9.525000
  0
LINE
  8
0
 10
-137.879000
 11
-137.983000
 20
9.525000
 21
8.870000
  0
LINE
  8
0
 10
-137.983000
 11
-138.284000
 20
8.870000
 21
8.278000
  0
LINE
  8
0
 10
-138.284000
 11
-138.753000
 20
8.278000
 21
7.809000
  0
LINE
  8
0
 10
-138.753000
 11
-139.345000
 20
7.809000
 21
7.508000
  0
LINE
  8
0
 10
-139.345000
 11
-140.000000
 20
7.508000
 21
7.404000
  0
LINE
  8
0
 10
-140.000000
 11
-140.655000
 20
7.404000
 21
7.508000
  0
LINE
  8
0
 10
-140.655000
 11
-141.247000
 20
7.508000
 21
7.809000
  0
LINE
  8
0
 10
-141.247000
 11
-141.716000
 20
7.809000
 21
8.278000
  0
LINE
  8
0
 10
-141.716000
 11
-142.017000
 20
8.278000
 21
8.870000
  0
LINE
  8
0
 10
-142.017000
 11
-142.121000
 20
8.870000
 21
9.525000
  0
LINE
  8
0
 10
-113.100000
 11
-113.100000
 20
5.000000
 21
6.100000
  0
LINE
  8
0
 10
-113.100000
 11
-112.500000
 20
6.100000
 21
6.100000
  0
LINE
  8
0
 10
-112.500000
 11
-112.500000
 20
6.100000
 21
11.500000
  0
LINE
  8
0
 10
-112.500000
 11
-112.378000
 20
11.500000
 21
12.273000
  0
LINE
  8
0
 10
-112.378000
 11
-112.023000
 20
12.273000
 21
12.969000
  0
LINE
  8
0
 10
-112.023000
 11
-111.469000
 20
12.969000
 21
13.523000
  0
LINE
  8
0
 10
-111.469000
 11
-110.773000
 20
13.523000
 21
13.878000
  0
LINE
  8
0
 10
-110.773000
 11
-110.000000
 20
13.878000
 21
14.000000
  0
LINE
  8
0
 10
-110.000000
 11
-109.227000
 20
14.000000
 21
13.878000
  0
LINE
  8
0
 10
-109.227000
 11
-108.531000
 20
13.878000
 21
13.523000
  0
LINE
  8
0
 10
-108.531000
 11
-107.977000
 20
13.523000
 21
12.969000
  0
LINE
  8
0
 10
-107.977000
 11
-107.622000
 20
12.969000
 21
12.273000
  0
LINE
  8
0
 10
-107.622000
 11
-107.500000
 20
12.273000
 21
11.500000
  0
LINE
  8
0
 10
-107.500000
 11
-107.500000
 20
11.500000
 21
5.000000
  0
LINE
  8
0
 10
-107.500000
 11
-108.500000
 20
5.000000
 21
5.000000
  0
LINE
  8
0
 10
-108.500000
 11
-108.500000
 20
5.000000
 21
3.000000
  0
LINE
  8
0
 10
-108.500000
 11
-109.500000
 20
3.000000
 21
3.000000
  0
LINE
  8
0
 10
-109.500000
 11
-109.500000
 20
3.000000
 21
5.000000
  0
LINE
  8
0
 10
-109.500000
 11
-110.800000
 20
5.000000
 21
5.000000
  0
LINE
  8
0
 10
-110.800000
 11
-110.800000
 20
5.000000
 21
3.000000
  0
LINE
  8
0
 10
-110.800000
 11
-111.800000
 20
3.000000
 21
3.000000
  0
LINE
  8
0
 10
-111.800000
 11
-111.800000
 20
3.000000
 21
5.000000
  0
LINE
  8
0
 10
-111.800000
 11
-113.100000
 20
5.000000
 21
5.000000
  0
LINE
  8
0
 10
-81.121000
 11
-81.017000
 20
49.200000
 21
49.855000
  0
LINE
  8
0
 10
-81.017000
 11
-80.716000
 20
49.855000
 21
50.447000
  0
LINE
  8
0
 10
-80.716000
 11
-80.247000
 20
50.447000
 21
50.916000
  0
LINE
  8
0
 10
-80.247000
 11
-79.655000
 20
50.916000
 21
51.217000
  0
LINE
  8
0
 10
-79.655000
 11
-79.000000
 20
51.217000
 21
51.321000
  0
LINE
  8
0
 10
-79.000000
 11
-78.345000
 20
51.321000
 21
51.217000
  0
LINE
  8
0
 10
-78.345000
 11
-77.753000
 20
51.217000
 21
50.916000
  0
LINE
  8
0
 10
-77.753000
 11
-77.284000
 20
50.916000
 21
50.447000
  0
LINE
  8
0
 10
-77.284000
 11
-76.983000
 20
50.447000
 21
49.855000
  0
LINE
  8
0
 10
-76.983000
 11
-76.879000
 20
49.855000
 21
49.200000
  0
LINE
  8
0
 10
-76.879000
 11
-76.983000
 20
49.200000
 21
48.545000
  0
LINE
  8
0
 10
-76.983000
 11
-77.284000
 20
48.545000
 21
47.953000
  0
LINE
  8
0
 10
-77.284000
 11
-77.753000
 20
47.953000
 21
47.484000
  0
LINE
  8
0
 10
-77.753000
 11
-78.345000
 20
47.484000
 21
47.183000
  0
LINE
  8
0
 10
-78.345000
 11
-79.000000
 20
47.183000
 21
47.079000
  0
LINE
  8
0
 10
-79.000000
 11
-79.655000
 20
47.079000
 21
47.183000
  0
LINE
  8
0
 10
-79.655000
 11
-80.247000
 20
47.183000
 21
47.484000
  0
LINE
  8
0
 10
-80.247000
 11
-80.716000
 20
47.484000
 21
47.953000
  0
LINE
  8
0
 10
-80.716000
 11
-81.017000
 20
47.953000
 21
48.545000
  0
LINE
  8
0
 10
-81.017000
 11
-81.121000
 20
48.545000
 21
49.200000
  0
LINE
  8
0
 10
-81.121000
 11
-81.017000
 20
63.000000
 21
63.655000
  0
LINE
  8
0
 10
-81.017000
 11
-80.716000
 20
63.655000
 21
64.247000
  0
LINE
  8
0
 10
-80.716000
 11
-80.247000
 20
64.247000
 21
64.716000
  0
LINE
  8
0
 10
-80.247000
 11
-79.655000
 20
64.716000
 21
65.017000
  0
LINE
  8
0
 10
-79.655000
 11
-79.000000
 20
65.017000
 21
65.121000
  0
LINE
  8
0
 10
-79.000000
 11
-78.345000
 20
65.121000
 21
65.017000
  0
LINE
  8
0
 10
-78.345000
 11
-77.753000
 20
65.017000
 21
64.716000
  0
LINE
  8
0
 10
-77.753000
 11
-77.284000
 20
64.716000
 21
64.247000
  0
LINE
  8
0
 10
-77.284000
 11
-76.983000
 20
64.247000
 21
63.655000
  0
LINE
  8
0
 10
-76.983000
 11
-76.879000
 20
63.655000
 21
63.000000
  0
LINE
  8
0
 10
-76.879000
 11
-76.983000
 20
63.000000
 21
62.345000
  0
LINE
  8
0
 10
-76.983000
 11
-77.284000
 20
62.345000
 21
61.753000
  0
LINE
  8
0
 10
-77.284000
 11
-77.753000
 20
61.753000
 21
61.284000
  0
LINE
  8
0
 10
-77.753000
 11
-78.345000
 20
61.284000
 21
60.983000
  0
LINE
  8
0
 10
-78.345000
 11
-79.000000
 20
60.983000
 21
60.879000
  0
LINE
  8
0
 10
-79.000000
 11
-79.655000
 20
60.879000
 21
60.983000
  0
LINE
  8
0
 10
-79.655000
 11
-80.247000
 20
60.983000
 21
61.284000
  0
LINE
  8
0
 10
-80.247000
 11
-80.716000
 20
61.284000
 21
61.753000
  0
LINE
  8
0
 10
-80.716000
 11
-81.017000
 20
61.753000
 21
62.345000
  0
LINE
  8
0
 10
-81.017000
 11
-81.121000
 20
62.345000
 21
63.000000
  0
LINE
  8
0
 10
-81.121000
 11
-81.017000
 20
75.000000
 21
75.655000
  0
LINE
  8
0
 10
-81.017000
 11
-80.716000
 20
75.655000
 21
76.247000
  0
LINE
  8
0
 10
-80.716000
 11
-80.247000
 20
76.247000
 21
76.716000
  0
LINE
  8
0
 10
-80.247000
 11
-79.655000
 20
76.716000
 21
77.017000
  0
LINE
  8
0
 10
-79.655000
 11
-79.000000
 20
77.017000
 21
77.121000
  0
LINE
  8
0
 10
-79.000000
 11
-78.345000
 20
77.121000
 21
77.017000
  0
LINE
  8
0
 10
-78.345000
 11
-77.753000
 20
77.017000
 21
76.716000
  0
LINE
  8
0
 10
-77.753000
 11
-77.284000
 20
76.716000
 21
76.247000
  0
LINE
  8
0
 10
-77.284000
 11
-76.983000
 20
76.247000
 21
75.655000
  0
LINE
  8
0
 10
-76.983000
 11
-76.879000
 20
75.655000
 21
75.000000
  0
LINE
  8
0
 10
-76.879000
 11
-76.983000
 20
75.000000
 21
74.345000
  0
LINE
  8
0
 10
-76.983000
 11
-77.284000
 20
74.345000
 21
73.753000
  0
LINE
  8
0
 10
-77.284000
 11
-77.753000
 20
73.753000
 21
73.284000
  0
LINE
  8
0
 10
-77.753000
 11
-78.345000
 20
73.284000
 21
72.983000
  0
LINE
  8
0
 10
-78.345000
 11
-79.000000
 20
72.983000
 21
72.879000
  0
LINE
  8
0
 10
-79.000000
 11
-79.655000
 20
72.879000
 21
72.983000
  0
LINE
  8
0
 10
-79.655000
 11
-80.247000
 20
72.983000
 21
73.284000
  0
LINE
  8
0
 10
-80.247000
 11
-80.716000
 20
73.284000
 21
73.753000
  0
LINE
  8
0
 10
-80.716000
 11
-81.017000
 20
73.753000
 21
74.345000
  0
LINE
  8
0
 10
-81.017000
 11
-81.121000
 20
74.345000
 21
75.000000
  0
LINE
  8
0
 10
-77.121000
 11
-77.017000
 20
9.525000
 21
10.180000
  0
LINE
  8
0
 10
-77.017000
 11
-76.716000
 20
10.180000
 21
10.772000
  0
LINE
  8
0
 10
-76.716000
 11
-76.247000
 20
10.772000
 21
11.241000
  0
LINE
  8
0
 10
-76.247000
 11
-75.655000
 20
11.241000
 21
11.542000
  0
LINE
  8
0
 10
-75.655000
 11
-75.000000
 20
11.542000
 21
11.646000
  0
LINE
  8
0
 10
-75.000000
 11
-74.345000
 20
11.646000
 21
11.542000
  0
LINE
  8
0
 10
-74.345000
 11
-73.753000
 20
11.542000
 21
11.241000
  0
LINE
  8
0
 10
-73.753000
 11
-73.284000
 20
11.241000
 21
10.772000
  0
LINE
  8
0
 10
-73.284000
 11
-72.983000
 20
10.772000
 21
10.180000
  0
LINE
  8
0
 10
-72.983000
 11
-72.879000
 20
10.180000
 21
9.525000
  0
LINE
  8
0
 10
-72.879000
 11
-72.983000
 20
9.525000
 21
8.870000
  0
LINE
  8
0
 10
-72.983000
 11
-73.284000
 20
8.870000
 21
8.278000
  0
LINE
  8
0
 10
-73.284000
 11
-73.753000
 20
8.278000
 21
7.809000
  0
LINE
  8
0
 10
-73.753000
 11
-74.345000
 20
7.809000
 21
7.508000
  0
LINE
  8
0
 10
-74.345000
 11
-75.000000
 20
7.508000
 21
7.404000
  0
LINE
  8
0
 10
-75.000000
 11
-75.655000
 20
7.404000
 21
7.508000
  0
LINE
  8
0
 10
-75.655000
 11
-76.247000
 20
7.508000
 21
7.809000
  0
LINE
  8
0
 10
-76.247000
 11
-76.716000
 20
7.809000
 21
8.278000
  0
LINE
  8
0
 10
-76.716000
 11
-77.017000
 20
8.278000
 21
8.870000
  0
LINE
  8
0
 10
-77.017000
 11
-77.121000
 20
8.870000
 21
9.525000
  0
LINE
  8
0
 10
-43.100000
 11
-43.100000
 20
5.000000
 21
6.100000
  0
LINE
  8
0
 10
-43.100000
 11
-42.500000
 20
6.100000
 21
6.100000
  0
LINE
  8
0
 10
-42.500000
 11
-42.500000
 20
6.100000
 21
11.500000
  0
LINE
  8
0
 10
-42.500000
 11
-42.378000
 20
11.500000
 21
12.273000
  0
LINE
  8
0
 10
-42.378000
 11
-42.023000
 20
12.273000
 21
12.969000
  0
LINE
  8
0
 10
-42.023000
 11
-41.469000
 20
12.969000
 21
13.523000
  0
LINE
  8
0
 10
-41.469000
 11
-40.773000
 20
13.523000
 21
13.878000
  0
LINE
  8
0
 10
-40.773000
 11
-40.000000
 20
13.878000
 21
14.000000
  0
LINE
  8
0
 10
-40.000000
 11
-39.227000
 20
14.000000
 21
13.878000
  0
LINE
  8
0
 10
-39.227000
 11
-38.531000
 20
13.878000
 21
13.523000
  0
LINE
  8
0
 10
-38.531000
 11
-37.977000
 20
13.523000
 21
12.969000
  0
LINE
  8
0
 10
-37.977000
 11
-37.622000
 20
12.969000
 21
12.273000
  0
LINE
  8
0
 10
-37.622000
 11
-37.500000
 20
12.273000
 21
11.500000
  0
LINE
  8
0
 10
-37.500000
 11
-37.500000
 20
11.500000
 21
5.000000
  0
LINE
  8
0
 10
-37.500000
 11
-38.500000
 20
5.000000
 21
5.000000
  0
LINE
  8
0
 10
-38.500000
 11
-38.500000
 20
5.000000
 21
3.000000
  0
LINE
  8
0
 10
-38.500000
 11
-39.500000
 20
3.000000
 21
3.000000
  0
LINE
  8
0
 10
-39.500000
 11
-39.500000
 20
3.000000
 21
5.000000
  0
LINE
  8
0
 10
-39.500000
 11
-40.800000
 20
5.000000
 21
5.000000
  0
LINE
  8
0
 10
-40.800000
 11
-40.800000
 20
5.000000
 21
3.000000
  0
LINE
  8
0
 10
-40.800000
 11
-41.800000
 20
3.000000
 21
3.000000
  0
LINE
  8
0
 10
-41.800000
 11
-41.800000
 20
3.000000
 21
5.000000
  0
LINE
  8
0
 10
-41.800000
 11
-43.100000
 20
5.000000
 21
5.000000
  0
LINE
  8
0
 10
-12.121000
 11
-12.017000
 20
9.525000
 21
10.180000
  0
LINE
  8
0
 10
-12.017000
 11
-11.716000
 20
10.180000
 21
10.772000
  0
LINE
  8
0
 10
-11.716000
 11
-11.247000
 20
10.772000
 21
11.241000
  0
LINE
  8
0
 10
-11.247000
 11
-10.655000
 20
11.241000
 21
11.542000
  0
LINE
  8
0
 10
-10.655000
 11
-10.000000
 20
11.542000
 21
11.646000
  0
LINE
  8
0
 10
-10.000000
 11
-9.345000
 20
11.646000
 21
11.542000
  0
LINE
  8
0
 10
-9.345000
 11
-8.753000
 20
11.542000
 21
11.241000
  0
LINE
  8
0
 10
-8.753000
 11
-8.284000
 20
11.241000
 21
10.772000
  0
LINE
  8
0
 10
-8.284000
 11
-7.983000
 20
10.772000
 21
10.180000
  0
LINE
  8
0
 10
-7.983000
 11
-7.879000
 20
10.180000
 21
9.525000
  0
LINE
  8
0
 10
-7.879000
 11
-7.983000
 20
9.525000
 21
8.870000
  0
LINE
  8
0
 10
-7.983000
 11
-8.284000
 20
8.870000
 21
8.278000
  0
LINE
  8
0
 10
-8.284000
 11
-8.753000
 20
8.278000
 21
7.809000
  0
LINE
  8
0
 10
-8.753000
 11
-9.345000
 20
7.809000
 21
7.508000
  0
LINE
  8
0
 10
-9.345000
 11
-10.000000
 20
7.508000
 21
7.404000
  0
LINE
  8
0
 10
-10.000000
 11
-10.655000
 20
7.404000
 21
7.508000
  0
LINE
  8
0
 10
-10.655000
 11
-11.247000
 20
7.508000
 21
7.809000
  0
LINE
  8
0
 10
-11.247000
 11
-11.716000
 20
7.809000
 21
8.278000
  0
LINE
  8
0
 10
-11.716000
 11
-12.017000
 20
8.278000
 21
8.870000
  0
LINE
  8
0
 10
-12.017000
 11
-12.121000
 20
8.870000
 21
9.525000
  0
LINE
  8
0
 10
-12.121000
 11
-12.017000
 20
80.000000
 21
80.655000
  0
LINE
  8
0
 10
-12.017000
 11
-11.716000
 20
80.655000
 21
81.247000
  0
LINE
  8
0
 10
-11.716000
 11
-11.247000
 20
81.247000
 21
81.716000
  0
LINE
  8
0
 10
-11.247000
 11
-10.655000
 20
81.716000
 21
82.017000
  0
LINE
  8
0
 10
-10.655000
 11
-10.000000
 20
82.017000
 21
82.121000
  0
LINE
  8
0
 10
-10.000000
 11
-9.345000
 20
82.121000
 21
82.017000
  0
LINE
  8
0
 10
-9.345000
 11
-8.753000
 20
82.017000
 21
81.716000
  0
LINE
  8
0
 10
-8.753000
 11
-8.284000
 20
81.716000
 21
81.247000
  0
LINE
  8
0
 10
-8.284000
 11
-7.983000
 20
81.247000
 21
80.655000
  0
LINE
  8
0
 10
-7.983000
 11
-7.879000
 20
80.655000
 21
80.000000
  0
LINE
  8
0
 10
-7.879000
 11
-7.983000
 20
80.000000
 21
79.345000
  0
LINE
  8
0
 10
-7.983000
 11
-8.284000
 20
79.345000
 21
78.753000
  0
LINE
  8
0
 10
-8.284000
 11
-8.753000
 20
78.753000
 21
78.284000
  0
LINE
  8
0
 10
-8.753000
 11
-9.345000
 20
78.284000
 21
77.983000
  0
LINE
  8
0
 10
-9.345000
 11
-10.000000
 20
77.983000
 21
77.879000
  0
LINE
  8
0
 10
-10.000000
 11
-10.655000
 20
77.879000
 21
77.983000
  0
LINE
  8
0
 10
-10.655000
 11
-11.247000
 20
77.983000
 21
78.284000
  0
LINE
  8
0
 10
-11.247000
 11
-11.716000
 20
78.284000
 21
78.753000
  0
LINE
  8
0
 10
-11.716000
 11
-12.017000
 20
78.753000
 21
79.345000
  0
LINE
  8
0
 10
-12.017000
 11
-12.121000
 20
79.345000
 21
80.000000
  0
ENDSEC
  0
SECTION
  2
OBJECTS
  0
DICTIONARY
  0
ENDSEC
  0
EOF
