<?xml version="1.0" encoding="UTF-8" standalone="no"?>
<!-- Created with Inkscape (http://www.inkscape.org/) -->

<svg
   xmlns:dc="http://purl.org/dc/elements/1.1/"
   xmlns:cc="http://creativecommons.org/ns#"
   xmlns:rdf="http://www.w3.org/1999/02/22-rdf-syntax-ns#"
   xmlns:svg="http://www.w3.org/2000/svg"
   xmlns="http://www.w3.org/2000/svg"
   xmlns:sodipodi="http://sodipodi.sourceforge.net/DTD/sodipodi-0.dtd"
   xmlns:inkscape="http://www.inkscape.org/namespaces/inkscape"
   width="990"
   height="765"
   id="svg2"
   version="1.1"
   inkscape:version="0.48.1 "
   sodipodi:docname="TwitterTapeSide.svg">
  <defs
     id="defs4" />
  <sodipodi:namedview
     id="base"
     pagecolor="#ffffff"
     bordercolor="#666666"
     borderopacity="1.0"
     inkscape:pageopacity="0.0"
     inkscape:pageshadow="2"
     inkscape:zoom="0.78"
     inkscape:cx="633.47963"
     inkscape:cy="526.50608"
     inkscape:document-units="mm"
     inkscape:current-layer="layer1"
     showgrid="false"
     inkscape:window-width="1680"
     inkscape:window-height="998"
     inkscape:window-x="-8"
     inkscape:window-y="-8"
     inkscape:window-maximized="1" />
  <metadata
     id="metadata7">
    <rdf:RDF>
      <cc:Work
         rdf:about="">
        <dc:format>image/svg+xml</dc:format>
        <dc:type
           rdf:resource="http://purl.org/dc/dcmitype/StillImage" />
        <dc:title></dc:title>
      </cc:Work>
    </rdf:RDF>
  </metadata>
  <g
     inkscape:label="Layer 1"
     inkscape:groupmode="layer"
     id="layer1"
     transform="translate(0,-287.36218)">
    <g
       id="g3900"
       transform="translate(19,-174)" />
    <g
       id="g4042"
       transform="translate(5.399837,100.1467)">
      <g
         transform="translate(0,2.8835493)"
         id="g3864">
        <g
           id="g3845"
           transform="matrix(0.99840297,0.05649351,-0.05649351,0.99840297,415.32873,244.60935)">
          <g
             transform="translate(177.90055,-28.729282)"
             id="g3822">
            <path
               sodipodi:type="arc"
               style="fill:#000000;fill-opacity:0.31182796;fill-rule:nonzero;stroke:#000000;stroke-width:0.20401628;stroke-linecap:butt;stroke-linejoin:miter;stroke-miterlimit:4;stroke-opacity:1;stroke-dasharray:none;stroke-dashoffset:0"
               id="path3820"
               sodipodi:cx="180.38673"
               sodipodi:cy="399.39227"
               sodipodi:rx="56.077347"
               sodipodi:ry="59.11602"
               d="m 236.46408,399.39227 c 0,32.64888 -25.10668,59.11602 -56.07735,59.11602 -30.97066,0 -56.07734,-26.46714 -56.07734,-59.11602 0,-32.64887 25.10668,-59.11602 56.07734,-59.11602 30.97067,0 56.07735,26.46715 56.07735,59.11602 z"
               transform="matrix(1.7832114,0,0,1.691551,-196.7661,-273.39524)" />
            <g
               id="g3813"
               style="stroke-width:0.35433072;stroke-miterlimit:4;stroke-dasharray:none">
              <path
                 transform="matrix(1.0028529,0,0,0.8572776,81.829402,112.74745)"
                 d="m 176.68711,337.63824 c 0,10.50358 -7.2788,19.01841 -16.25767,19.01841 -8.97886,0 -16.25767,-8.51483 -16.25767,-19.01841 0,-10.50357 7.27881,-19.0184 16.25767,-19.0184 8.97887,0 16.25767,8.51483 16.25767,19.0184 z"
                 sodipodi:ry="19.018404"
                 sodipodi:rx="16.257669"
                 sodipodi:cy="337.63824"
                 sodipodi:cx="160.42944"
                 id="path2987-9"
                 style="fill:#008000;fill-opacity:1;fill-rule:nonzero;stroke:#000000;stroke-width:0.38214612;stroke-linecap:butt;stroke-linejoin:miter;stroke-miterlimit:4;stroke-opacity:1;stroke-dasharray:none;stroke-dashoffset:0"
                 sodipodi:type="arc" />
              <path
                 transform="matrix(1.0028529,0,0,0.8572776,-153.80051,112.74745)"
                 d="m 176.68711,337.63824 c 0,10.50358 -7.2788,19.01841 -16.25767,19.01841 -8.97886,0 -16.25767,-8.51483 -16.25767,-19.01841 0,-10.50357 7.27881,-19.0184 16.25767,-19.0184 8.97887,0 16.25767,8.51483 16.25767,19.0184 z"
                 sodipodi:ry="19.018404"
                 sodipodi:rx="16.257669"
                 sodipodi:cy="337.63824"
                 sodipodi:cx="160.42944"
                 id="path2987"
                 style="fill:#008000;fill-opacity:1;fill-rule:nonzero;stroke:#000000;stroke-width:0.38214612;stroke-linecap:butt;stroke-linejoin:miter;stroke-miterlimit:4;stroke-opacity:1;stroke-dasharray:none;stroke-dashoffset:0"
                 sodipodi:type="arc" />
              <path
                 transform="matrix(0.50966124,0,0,0.47325687,-65.12926,238.14366)"
                 d="m 391.42858,346.64789 c 0,11.04569 -8.31472,20 -18.57143,20 -10.25672,0 -18.57143,-8.95431 -18.57143,-20 0,-11.0457 8.31471,-20 18.57143,-20 10.25671,0 18.57143,8.9543 18.57143,20 z"
                 sodipodi:ry="20"
                 sodipodi:rx="18.571428"
                 sodipodi:cy="346.64789"
                 sodipodi:cx="372.85715"
                 id="path2985"
                 style="fill:#ff0000;fill-opacity:1;fill-rule:nonzero;stroke:#000000;stroke-width:0.72147208;stroke-linecap:butt;stroke-linejoin:miter;stroke-miterlimit:4;stroke-opacity:1;stroke-dasharray:none;stroke-dashoffset:0"
                 sodipodi:type="arc" />
              <path
                 transform="matrix(0.914364,0,0,0.914364,-191.95174,92.071159)"
                 d="m 224.86189,339.17126 c 0,3.96669 -3.21564,7.18233 -7.18232,7.18233 -3.96669,0 -7.18233,-3.21564 -7.18233,-7.18233 0,-3.96668 3.21564,-7.18232 7.18233,-7.18232 3.96668,0 7.18232,3.21564 7.18232,7.18232 z"
                 sodipodi:ry="7.1823206"
                 sodipodi:rx="7.1823206"
                 sodipodi:cy="339.17126"
                 sodipodi:cx="217.67957"
                 id="path2989"
                 style="fill:#000000;fill-opacity:1;stroke:#000000;stroke-width:0.38751602;stroke-linecap:butt;stroke-linejoin:miter;stroke-miterlimit:4;stroke-opacity:1;stroke-dasharray:none;stroke-dashoffset:0"
                 sodipodi:type="arc" />
              <path
                 d="m 224.86189,339.17126 c 0,3.96669 -3.21564,7.18233 -7.18232,7.18233 -3.96669,0 -7.18233,-3.21564 -7.18233,-7.18233 0,-3.96668 3.21564,-7.18232 7.18233,-7.18232 3.96668,0 7.18232,3.21564 7.18232,7.18232 z"
                 sodipodi:ry="7.1823206"
                 sodipodi:rx="7.1823206"
                 sodipodi:cy="339.17126"
                 sodipodi:cx="217.67957"
                 id="path2989-1"
                 style="fill:#000000;fill-opacity:1;stroke:#000000;stroke-width:0.38751602;stroke-linecap:butt;stroke-linejoin:miter;stroke-miterlimit:4;stroke-opacity:1;stroke-dasharray:none;stroke-dashoffset:0"
                 sodipodi:type="arc"
                 transform="matrix(0.914364,0,0,0.914364,43.678176,92.071159)" />
            </g>
          </g>
          <path
             sodipodi:nodetypes="cc"
             inkscape:connector-curvature="0"
             id="path3833"
             d="M 162.73937,391.77112 402.65494,377.61988"
             style="fill:none;stroke:#000000;stroke-width:0.99797636px;stroke-linecap:butt;stroke-linejoin:miter;stroke-opacity:1" />
        </g>
        <g
           transform="translate(16,-6)"
           id="g4026">
          <g
             id="g4020">
            <g
               id="g3841"
               transform="translate(541.17268,261.45296)">
              <rect
                 transform="translate(0,62.362183)"
                 y="130.72165"
                 x="46.391754"
                 height="197.00787"
                 width="106.83071"
                 id="rect3837"
                 style="fill:#000000;fill-opacity:0.31182796;fill-rule:nonzero;stroke:#000000;stroke-width:0.35433072;stroke-linecap:butt;stroke-linejoin:miter;stroke-miterlimit:4;stroke-opacity:1;stroke-dasharray:none;stroke-dashoffset:0" />
              <rect
                 y="218.94998"
                 x="55.51577"
                 height="157.67717"
                 width="88.58268"
                 id="rect3835"
                 style="fill:#2f2f2f;fill-opacity:1;fill-rule:nonzero;stroke:#000000;stroke-width:0.35433072;stroke-linecap:butt;stroke-linejoin:miter;stroke-miterlimit:4;stroke-opacity:1;stroke-dasharray:none;stroke-dashoffset:0" />
            </g>
            <rect
               y="515.617"
               x="544.0307"
               height="99.212601"
               width="150.23647"
               id="rect3908-3"
               style="fill:#00ffff;fill-opacity:0.45698924;fill-rule:nonzero;stroke:#000000;stroke-width:0.30191451;stroke-linecap:butt;stroke-linejoin:miter;stroke-miterlimit:4;stroke-opacity:1;stroke-dasharray:none;stroke-dashoffset:0" />
          </g>
          <rect
             style="fill:none;stroke:#000000;stroke-width:0.35433072;stroke-linecap:butt;stroke-linejoin:miter;stroke-miterlimit:4;stroke-opacity:1;stroke-dasharray:none;stroke-dashoffset:0"
             id="rect3940-8"
             width="23.740158"
             height="20.551182"
             x="662.1496"
             y="630.99347" />
        </g>
        <rect
           y="734.55328"
           x="291.79105"
           height="67.322838"
           width="547.76117"
           id="rect4038"
           style="fill:none;stroke:#000000;stroke-width:0.35433072;stroke-linecap:butt;stroke-linejoin:miter;stroke-miterlimit:4;stroke-opacity:1;stroke-dasharray:none;stroke-dashoffset:0" />
      </g>
      <g
         transform="translate(35,-61.765853)"
         id="g3860">
        <path
           sodipodi:type="arc"
           style="fill:#f1f1f1;fill-opacity:1;fill-rule:nonzero;stroke:#000000;stroke-width:0.35433072;stroke-linecap:butt;stroke-linejoin:miter;stroke-miterlimit:4;stroke-opacity:1;stroke-dasharray:none;stroke-dashoffset:0"
           id="path3856"
           sodipodi:cx="344.92188"
           sodipodi:cy="372.03125"
           sodipodi:rx="144.92188"
           sodipodi:ry="139.84375"
           d="m 489.84375,372.03125 c 0,77.23357 -64.88373,139.84375 -144.92188,139.84375 C 264.88373,511.875 200,449.26482 200,372.03125 200,294.79768 264.88373,232.1875 344.92187,232.1875 c 80.03815,0 144.92188,62.61018 144.92188,139.84375 z"
           transform="matrix(1.3919049,0,0,1.4424489,-174.30711,60.809754)" />
        <path
           sodipodi:type="arc"
           style="fill:#000000;fill-opacity:1;fill-rule:nonzero;stroke:#000000;stroke-width:0.35433072;stroke-linecap:butt;stroke-linejoin:miter;stroke-miterlimit:4;stroke-opacity:1;stroke-dasharray:none;stroke-dashoffset:0"
           id="path3858"
           sodipodi:cx="265.5"
           sodipodi:cy="48.5"
           sodipodi:rx="7.5"
           sodipodi:ry="9.5"
           d="m 273,48.5 c 0,5.246705 -3.35786,9.5 -7.5,9.5 -4.14214,0 -7.5,-4.253295 -7.5,-9.5 0,-5.246705 3.35786,-9.5 7.5,-9.5 4.14214,0 7.5,4.253295 7.5,9.5 z"
           transform="matrix(0.9254577,0,0,0.7306245,60.082319,562.01053)" />
      </g>
      <path
         sodipodi:type="arc"
         style="fill:#008000;fill-opacity:1;fill-rule:nonzero;stroke:#000000;stroke-width:0.38214612;stroke-linecap:butt;stroke-linejoin:miter;stroke-miterlimit:4;stroke-opacity:1;stroke-dasharray:none;stroke-dashoffset:0"
         id="path2987-9-4"
         sodipodi:cx="160.42944"
         sodipodi:cy="337.63824"
         sodipodi:rx="16.257669"
         sodipodi:ry="19.018404"
         d="m 176.68711,337.63824 c 0,10.50358 -7.2788,19.01841 -16.25767,19.01841 -8.97886,0 -16.25767,-8.51483 -16.25767,-19.01841 0,-10.50357 7.27881,-19.0184 16.25767,-19.0184 8.97887,0 16.25767,8.51483 16.25767,19.0184 z"
         transform="matrix(1.0012513,0.05665468,-0.04843062,0.8559085,381.72184,365.28566)" />
      <path
         transform="matrix(0.91290373,0.05165563,-0.05165563,0.91290373,344.79962,342.48709)"
         sodipodi:type="arc"
         style="fill:#000000;fill-opacity:1;stroke:#000000;stroke-width:0.38751602;stroke-linecap:butt;stroke-linejoin:miter;stroke-miterlimit:4;stroke-opacity:1;stroke-dasharray:none;stroke-dashoffset:0"
         id="path2989-1-3"
         sodipodi:cx="217.67957"
         sodipodi:cy="339.17126"
         sodipodi:rx="7.1823206"
         sodipodi:ry="7.1823206"
         d="m 224.86189,339.17126 c 0,3.96669 -3.21564,7.18233 -7.18232,7.18233 -3.96669,0 -7.18233,-3.21564 -7.18233,-7.18233 0,-3.96668 3.21564,-7.18232 7.18233,-7.18232 3.96668,0 7.18232,3.21564 7.18232,7.18232 z" />
      <g
         style="fill:#000000;fill-opacity:1"
         transform="translate(14,-6)"
         id="g4034">
        <path
           sodipodi:type="arc"
           style="fill:#000000;fill-opacity:1;stroke:#000000;stroke-width:0.35433072;stroke-linecap:butt;stroke-linejoin:miter;stroke-miterlimit:4;stroke-opacity:1;stroke-dasharray:none;stroke-dashoffset:0"
           id="path3912"
           sodipodi:cx="657.63159"
           sodipodi:cy="99.210526"
           sodipodi:rx="9.2105265"
           sodipodi:ry="4.7368422"
           d="m 666.84212,99.210526 c 0,2.616084 -4.12369,4.736844 -9.21053,4.736844 -5.08683,0 -9.21052,-2.12076 -9.21052,-4.736844 0,-2.616086 4.12369,-4.736843 9.21052,-4.736843 5.08684,0 9.21053,2.120757 9.21053,4.736843 z"
           transform="matrix(0.74930588,0,0,1.4569837,73.089596,394.06252)" />
        <path
           sodipodi:type="arc"
           style="fill:#000000;fill-opacity:1;stroke:#000000;stroke-width:0.35433072;stroke-linecap:butt;stroke-linejoin:miter;stroke-miterlimit:4;stroke-opacity:1;stroke-dasharray:none;stroke-dashoffset:0"
           id="path3912-8"
           sodipodi:cx="657.63159"
           sodipodi:cy="99.210526"
           sodipodi:rx="9.2105265"
           sodipodi:ry="4.7368422"
           d="m 666.84212,99.210526 c 0,2.616084 -4.12369,4.736844 -9.21053,4.736844 -5.08683,0 -9.21052,-2.12076 -9.21052,-4.736844 0,-2.616086 4.12369,-4.736843 9.21052,-4.736843 5.08684,0 9.21053,2.120757 9.21053,4.736843 z"
           transform="matrix(0.74930588,0,0,1.4569837,73.089596,450.97195)" />
      </g>
      <path
         transform="matrix(1.0130884,0,0,0.99674828,-53.014191,239.54714)"
         d="m 437.50752,297.09891 c 0,27.38753 -21.84388,49.58952 -48.78969,49.58952 -26.9458,0 -48.78968,-22.20199 -48.78968,-49.58952 0,-27.38754 21.84388,-49.58952 48.78968,-49.58952 26.94581,0 48.78969,22.20198 48.78969,49.58952 z"
         sodipodi:ry="49.58952"
         sodipodi:rx="48.789688"
         sodipodi:cy="297.09891"
         sodipodi:cx="388.71783"
         id="path3932"
         style="fill:none;stroke:#000000;stroke-width:0.35433072;stroke-linecap:butt;stroke-linejoin:miter;stroke-miterlimit:4;stroke-opacity:1;stroke-dasharray:none;stroke-dashoffset:0"
         sodipodi:type="arc" />
      <path
         transform="translate(0,287.36218)"
         sodipodi:nodetypes="ccccccccccccc"
         inkscape:connector-curvature="0"
         d="m 291.13846,249.10904 0,268.74827 548.68403,0 0,-161.28455 c 0.98039,-14.55236 -11.27451,-27.63414 -26.47059,-27.48062 l -74.55047,0 c -25.99096,0.10905 -0.35999,42.39104 -31.86275,42.39104 l -86.90448,0 c -22.10901,0 -22.46732,-8.17569 -22.46732,-23.09717 l -0.12255,-125.04064 c 0,-15.06336 -8.26975,-25.04065 -26.98821,-25.04065 l -229.72814,0 c -32.21611,0.26811 -50.70674,30.43817 -49.58952,50.80432 z"
         style="fill:none;stroke:#000000;stroke-width:1px;stroke-linecap:butt;stroke-linejoin:miter;stroke-opacity:1"
         id="path4072" />
    </g>
  </g>
</svg>
